<svg width="99" height="58" viewBox="0 0 99 58" fill="none" xmlns="http://www.w3.org/2000/svg">
<path d="M7.44107 56.2299C4.98773 56.2299 3.1744 55.5099 2.00107 54.0699C0.743804 52.4088 0.0437913 50.3928 0.00106893 48.3099C-0.0141672 46.9307 0.133521 45.5545 0.441068 44.2099C0.771068 42.5799 1.28107 40.4399 1.95107 37.7999C2.2444 36.6466 2.5544 35.4466 2.88107 34.1999C3.22107 32.9499 3.56107 31.7499 3.88107 30.5999C4.20107 29.4499 4.53107 28.3899 4.82107 27.4299L5.54107 25.0499L1.54107 23.1799L2.11107 19.7999L19.0311 19.4399L11.9011 45.8599C11.2311 48.3599 11.9811 49.2899 14.1411 48.6699C15.2211 48.3369 16.2147 47.7701 17.0511 47.0099C18.1218 46.1157 19.1246 45.143 20.0511 44.0999C20.9889 43.0466 21.867 41.9416 22.6811 40.7899C23.4711 39.6599 24.1111 38.7099 24.5911 37.9399C25.5197 37.9622 26.425 38.2352 27.2111 38.7299C27.9034 39.0756 28.4904 39.6005 28.9111 40.2499C27.6644 42.2499 26.3311 44.2166 24.9111 46.1499C23.5201 48.0224 21.9271 49.7361 20.1611 51.2599C18.4472 52.742 16.5186 53.9557 14.4411 54.8599C12.2287 55.7996 9.84439 56.2662 7.44107 56.2299Z" fill="black"/>
<path d="M22.2013 7.41C21.3515 7.61469 20.5453 7.97033 19.8213 8.46C18.9503 9.0178 18.1422 9.66825 17.4113 10.4C16.6877 11.1195 16.047 11.9178 15.5013 12.78C15.0216 13.4749 14.7257 14.2799 14.6413 15.12C14.4895 14.2743 14.1476 13.4742 13.6413 12.78C13.0581 11.9201 12.3879 11.1226 11.6413 10.4C10.8723 9.67859 10.0388 9.02921 9.15125 8.46C8.43064 7.97066 7.62784 7.61499 6.78125 7.41C7.62461 7.22081 8.42727 6.88213 9.15125 6.41C10.0326 5.86932 10.8656 5.25371 11.6413 4.57C12.3948 3.89453 13.0661 3.13261 13.6413 2.3C14.1511 1.62282 14.4938 0.834741 14.6413 0C14.7699 0.823144 15.0771 1.60817 15.5413 2.3C16.0629 3.14355 16.7027 3.90799 17.4412 4.57C18.1926 5.25288 19.0024 5.86857 19.8613 6.41C20.5736 6.8835 21.3667 7.22244 22.2013 7.41Z" fill="black"/>
<path d="M73.2411 46.8701C73.4311 47.2101 73.6811 47.6401 74.0011 48.1601C74.3211 48.6801 74.6211 49.2401 74.9311 49.8201C75.2411 50.4001 75.5411 50.9401 75.8311 51.4401C76.1211 51.9401 76.3111 52.2901 76.4111 52.4901L67.7011 57.8101L65.3611 55.6901C64.2811 54.6901 63.1211 53.6901 61.9011 52.4901C60.6811 51.2901 59.4811 50.2201 58.3011 49.1201L55.6011 46.6301L63.8811 41.2301V10.8001H55.6011L59.3011 2.37012H73.3011L73.2411 46.8701ZM73.1711 36.9301C73.4168 35.6387 73.7509 34.3657 74.1711 33.1201C74.6019 31.8222 75.1301 30.5586 75.7511 29.3401C76.3734 28.1132 77.1207 26.9537 77.9811 25.8801C78.8258 24.8233 79.7925 23.87 80.8611 23.0401C81.9173 22.2019 83.0939 21.5277 84.3511 21.0401C85.6763 20.5522 87.0789 20.3083 88.4911 20.3201C89.8051 20.2843 91.1143 20.4945 92.3511 20.9401C93.29 21.2893 94.155 21.8117 94.9011 22.4801C95.5313 23.0505 96.056 23.7275 96.4511 24.4801C96.7883 25.1433 97.0436 25.8452 97.2111 26.5701L90.0111 35.1301C89.7992 34.4277 89.4602 33.7702 89.0111 33.1901C88.5067 32.5434 87.9104 31.974 87.2411 31.5001C86.5149 30.9798 85.7164 30.5688 84.8711 30.2801C83.9555 29.9593 82.9911 29.8002 82.0211 29.8101C81.005 29.8002 79.9934 29.9452 79.0211 30.2401C78.1031 30.5167 77.2474 30.9684 76.5011 31.5701C75.7368 32.1939 75.09 32.9491 74.5911 33.8001C74.0403 34.7491 73.6517 35.7833 73.4411 36.8601L73.1711 36.9301ZM73.4611 36.9301C74.415 38.2048 75.6595 39.2333 77.0911 39.9301C78.6349 40.709 80.2665 41.2999 81.9511 41.6901C83.6861 42.1009 85.4587 42.3321 87.2411 42.3801C88.9108 42.4251 90.5817 42.3516 92.2411 42.1601C93.607 42.0068 94.9498 41.6912 96.2411 41.2201C97.1273 40.9392 97.9309 40.4447 98.5811 39.7801L90.8011 57.7801C90.0269 57.6792 89.2872 57.3983 88.6411 56.9601C87.5099 56.2836 86.4393 55.5108 85.4411 54.6501C84.1435 53.5639 82.905 52.4089 81.7311 51.1901C80.4042 49.8449 79.1776 48.4044 78.0611 46.8801C76.9106 45.332 75.8872 43.6933 75.0011 41.9801C74.1474 40.3765 73.5053 38.6689 73.0911 36.9001L73.4611 36.9301Z" fill="black"/>
<path d="M9.54102 54.7401L27.101 24.7401L39.101 24.2301C35.0344 29.8901 31.131 35.6601 27.391 41.5401L27.561 41.7101C29.0277 39.8367 30.6677 37.8367 32.481 35.7101C34.2613 33.5901 36.1752 31.586 38.211 29.7101C40.1075 27.9583 42.1821 26.4099 44.401 25.0901C46.3016 23.9108 48.4847 23.2648 50.721 23.2201C52.6535 23.1494 54.5531 23.7345 56.111 24.8801C56.8418 25.483 57.4194 26.2504 57.7965 27.1194C58.1737 27.9885 58.3397 28.9345 58.281 29.8801C58.2311 31.925 57.6299 33.9185 56.541 35.6501C55.3629 37.66 54.0743 39.6029 52.681 41.4701C51.261 43.3634 49.9743 45.1734 48.821 46.9001C47.8098 48.2108 47.2049 49.7892 47.081 51.4401C47.0687 51.9704 47.2302 52.4902 47.541 52.9201C47.7187 53.1397 47.9473 53.3128 48.2069 53.4243C48.4665 53.5358 48.7494 53.5824 49.031 53.5601C50.6019 53.4435 52.0961 52.8347 53.301 51.8201C55.0468 50.5161 56.6915 49.082 58.221 47.5301C59.521 46.2301 60.821 44.8301 62.121 43.3301C63.421 41.8401 64.641 40.3901 65.771 39.0101C66.901 37.6301 67.921 36.3501 68.831 35.1901C69.741 34.0301 70.441 33.1101 70.951 32.4301L71.711 32.8501C69.791 35.4034 67.741 38.0367 65.561 40.7501C63.381 43.4634 61.191 45.9501 58.991 48.2101C56.9987 50.3321 54.7517 52.1996 52.301 53.7701C50.3114 55.0458 48.0043 55.7387 45.641 55.7701C44.5783 55.8491 43.5114 55.6879 42.5195 55.2984C41.5276 54.9089 40.636 54.3011 39.911 53.5201C38.5881 51.8806 37.9089 49.8147 38.001 47.7101C38.0054 45.657 38.5801 43.6455 39.661 41.9001C40.732 40.0776 41.9493 38.3452 43.301 36.7201C44.661 35.1001 45.891 33.6201 46.991 32.2601C47.9619 31.213 48.5443 29.8647 48.641 28.4401C48.641 26.8601 47.881 26.0701 46.351 26.0701C44.9784 26.2076 43.6788 26.7546 42.621 27.6401C40.9258 28.8752 39.3369 30.25 37.871 31.7501C36.171 33.4501 34.451 35.3401 32.691 37.4401C30.931 39.5401 29.281 41.6201 27.691 43.7101C26.101 45.8001 24.781 47.7901 23.621 49.6501C22.675 51.1319 21.8103 52.6642 21.031 54.2401L9.54102 54.7401Z" fill="black"/>
</svg>
